<?xml version="1.0" encoding="UTF-8" standalone="no"?>
<!DOCTYPE svg PUBLIC "-//W3C//DTD SVG 1.1//EN" "http://www.w3.org/Graphics/SVG/1.1/DTD/svg11.dtd">
<svg width="100%" height="100%" viewBox="0 0 48 64" version="1.1" xmlns="http://www.w3.org/2000/svg" xmlns:xlink="http://www.w3.org/1999/xlink" xml:space="preserve" xmlns:serif="http://www.serif.com/" style="fill-rule:evenodd;clip-rule:evenodd;stroke-linejoin:round;stroke-miterlimit:2;">
    <g transform="matrix(0.125,0,0,0.125,-8,0)">
        <path d="M74.654,255.061C67.74,235.321 64,214.094 64,192C64,86.032 150.032,0 256,0C361.968,0 448,86.032 448,192C448,214.444 444.141,235.994 437.015,256L436.763,256.707C431.454,271.54 424.369,285.532 415.758,298.433L256,512L96.242,298.433C87.485,285.337 80.299,271.107 74.985,256L74.654,255.061ZM256.693,383.999L256,384C252.822,384 249.663,383.923 246.523,383.769L246.262,383.757C245.089,383.698 243.919,383.629 242.752,383.549L241.877,383.487C243.334,383.593 244.796,383.683 246.262,383.757C246.262,383.757 246.523,383.769 246.523,383.769C249.663,383.923 252.822,384 256,384C256.231,384 256.462,384 256.693,383.999C256.924,383.998 257.155,383.997 257.387,383.995L256.693,383.999ZM256,64C326.645,64 384,121.355 384,192C384,262.645 326.645,320 256,320C185.355,320 128,262.645 128,192C128,121.355 185.355,64 256,64ZM258.772,383.98C261.77,383.938 264.751,383.827 267.713,383.648C267.713,383.648 268.396,383.605 268.396,383.605L269.207,383.552C273.257,383.276 277.272,382.875 281.255,382.351C281.255,382.351 281.402,382.331 281.402,382.331L281.513,382.316C330.33,375.821 373.367,350.959 403.435,314.907C373.367,350.959 330.33,375.821 281.513,382.316L281.402,382.331L281.255,382.351C277.275,382.874 273.258,383.276 269.207,383.552L268.396,383.605L267.713,383.648C264.75,383.827 261.769,383.938 258.772,383.98ZM240.681,383.396C240.237,383.361 239.793,383.325 239.35,383.286L238.686,383.228C239.572,383.307 240.459,383.381 241.348,383.448L240.681,383.396ZM237.158,383.085C236.365,383.008 235.572,382.925 234.779,382.838L233.988,382.749C233.197,382.659 232.408,382.564 231.62,382.464C231.62,382.464 230.801,382.358 230.801,382.358L230.639,382.336L229.407,382.17L228.738,382.076C180.887,375.259 138.705,350.778 109.019,315.449L108.671,315.033C138.375,350.588 180.705,375.236 228.738,382.076C229.183,382.139 229.629,382.201 230.076,382.261L230.639,382.336L230.745,382.351L230.801,382.358L230.847,382.364L231.62,382.464C232.406,382.563 233.195,382.659 233.987,382.749L234.779,382.838C235.834,382.954 236.891,383.062 237.951,383.161L237.158,383.085Z"/>
    </g>
</svg>
